# Blender v2.81 (sub 16) OBJ File: 'nutrl special .blend'
# www.blender.org
mtllib nutrl special .mtl
o Cube.001
v -0.080986 -0.056922 0.096148
v -0.080986 0.056922 0.096148
v -0.080986 -0.056922 -0.080171
v -0.080986 0.056922 -0.080171
v 0.002647 -0.056922 0.096148
v 0.002647 0.056922 0.096148
v 0.002647 -0.056922 -0.080171
v 0.002647 0.056922 -0.080171
v -0.080986 -0.056922 0.238602
v -0.080986 0.056922 0.238602
v 0.002647 0.056922 0.238602
v 0.002647 -0.056922 0.238602
v -0.080986 -0.363651 0.096148
v 0.002647 -0.363651 0.096148
v -0.080986 -0.363651 0.238602
v 0.002647 -0.363651 0.238602
vt 0.323248 0.482379
vt 0.266506 0.337152
vt 0.373695 0.295272
vt 0.430437 0.440499
vt 0.448682 0.265974
vt 0.505424 0.411201
vt 0.287655 0.075058
vt 0.344397 0.220285
vt 0.237208 0.262165
vt 0.180466 0.116938
vt 0.179905 0.370988
vt 0.150607 0.296001
vt 0.258357 0.000071
vt 0.151168 0.041951
vt 0.161660 0.545514
vt 0.104918 0.400287
vt 0.236647 0.516215
vt 0.093865 0.150774
vt 0.075058 0.579350
vt 0.314537 0.936795
vt 0.227936 0.970631
vt 0.476126 0.873660
vt 0.505424 0.948647
vt 0.418823 0.982484
vt 0.389524 0.907496
vt 0.000071 0.608648
vt 0.152949 0.999929
vn -1.0000 0.0000 0.0000
vn 0.0000 0.0000 -1.0000
vn 1.0000 0.0000 0.0000
vn 0.0000 1.0000 0.0000
vn 0.0000 -1.0000 0.0000
vn 0.0000 0.0000 1.0000
usemtl Material
s off
f 1/1/1 2/2/1 4/3/1 3/4/1
f 3/4/2 4/3/2 8/5/2 7/6/2
f 7/7/3 8/8/3 6/9/3 5/10/3
f 6/9/4 2/2/4 10/11/4 11/12/4
f 3/13/5 7/7/5 5/10/5 1/14/5
f 8/8/4 4/3/4 2/2/4 6/9/4
f 12/15/6 11/16/6 10/11/6 9/17/6
f 5/10/3 6/9/3 11/12/3 12/18/3
f 2/2/1 1/1/1 9/17/1 10/11/1
f 5/19/3 12/15/3 16/20/3 14/21/3
f 13/22/5 14/23/5 16/24/5 15/25/5
f 12/15/6 9/17/6 15/25/6 16/20/6
f 1/26/2 5/19/2 14/21/2 13/27/2
f 9/17/1 1/1/1 13/22/1 15/25/1
