# Blender v2.81 (sub 16) OBJ File: 'sisypi.blend'
# www.blender.org
mtllib sisypi.mtl
o Cube
v 0.395645 0.747033 -0.205194
v 0.243689 0.216824 -0.224509
v 0.395645 0.747033 0.153135
v 0.243689 0.216824 0.169663
v -0.362713 0.747033 -0.205194
v -0.210757 0.216824 -0.224509
v -0.362713 0.747033 0.153136
v -0.210757 0.216824 0.169663
v 0.317689 0.635373 -0.199495
v -0.284757 0.635373 0.206746
v 0.317689 0.635373 0.206746
v -0.284757 0.635373 -0.199495
v 0.085751 0.826867 0.006708
v -0.052819 0.826867 0.006708
v 0.085751 0.826867 -0.058767
v -0.052819 0.826867 -0.058767
v 0.124044 0.888674 0.077220
v -0.084902 0.888674 0.077220
v 0.124044 0.888674 -0.114894
v -0.084902 0.888674 -0.114894
v 0.153167 1.258372 0.084682
v -0.114025 1.258372 0.084682
v 0.153167 1.258372 -0.160986
v -0.114025 1.258372 -0.160986
v 0.102781 1.387136 0.038355
v -0.063640 1.387136 0.038355
v 0.102781 1.387136 -0.114659
v -0.063640 1.387136 -0.114659
v 0.016466 0.216824 -0.224509
v 0.016466 0.747033 0.153135
v 0.016466 0.216824 0.169663
v 0.016466 0.747033 -0.205194
v 0.016466 0.635373 -0.199495
v 0.016466 0.635373 0.206746
v 0.016466 0.826867 0.006708
v 0.016466 0.826867 -0.058767
v 0.019571 0.888674 0.117254
v 0.019571 0.888674 -0.154928
v 0.019571 1.258372 0.135876
v 0.019571 1.258372 -0.212180
v 0.019571 1.387136 0.038355
v 0.019571 1.387136 -0.114659
v -0.208569 0.118428 -0.224509
v -0.208569 0.118428 0.170905
v 0.016466 0.118428 -0.224509
v 0.016466 0.118428 0.170905
v 0.241501 0.118428 0.170905
v 0.241501 0.118428 -0.224509
v -0.350386 -0.833400 -0.149342
v -0.350386 -0.833400 0.105009
v -0.112337 -0.833400 -0.149342
v -0.112337 -0.833400 0.105009
v 0.145269 -0.833400 0.105009
v 0.145269 -0.833400 -0.149342
v 0.383318 -0.833400 0.105009
v 0.383318 -0.833400 -0.149342
v -0.352532 -0.891345 -0.149342
v -0.352532 -0.891345 0.105009
v -0.114483 -0.891345 -0.149342
v -0.114483 -0.891345 0.105009
v -0.397033 -1.660693 -0.136013
v -0.397033 -1.660693 0.093303
v -0.158984 -1.660693 -0.136013
v -0.158984 -1.660693 0.093303
v -0.415535 -1.836917 -0.198954
v -0.415535 -1.836917 0.128910
v -0.140482 -1.836917 -0.198954
v -0.140482 -1.836917 0.128910
v -0.336715 -1.703563 0.366506
v -0.219303 -1.703563 0.366506
v -0.345840 -1.836917 0.366505
v -0.210177 -1.836917 0.366506
v 0.486873 0.695463 -0.121093
v 0.486873 0.695463 0.088989
v 0.344008 0.487680 -0.117752
v 0.344008 0.487680 0.062999
v 0.564220 0.254530 -0.132417
v 0.564220 0.254530 0.077665
v 0.425465 0.230017 -0.117752
v 0.425465 0.230017 0.062999
v 0.631665 -0.265292 -0.119397
v 0.631665 -0.265292 0.064645
v 0.540215 -0.281448 -0.109732
v 0.540215 -0.281448 0.054979
v 0.655317 -0.261113 -0.132417
v 0.655317 -0.261113 0.077665
v 0.516563 -0.285627 -0.117752
v 0.516563 -0.285627 0.062999
v 0.671198 -0.489061 -0.084384
v 0.671198 -0.489061 0.029631
v 0.579748 -0.505217 -0.078396
v 0.579748 -0.505217 0.023643
v -0.546816 -0.505217 0.023643
v -0.546816 -0.505217 -0.078396
v -0.638266 -0.489061 0.029631
v -0.638266 -0.489061 -0.084384
v -0.483631 -0.285627 0.062999
v -0.483631 -0.285627 -0.117752
v -0.622386 -0.261113 0.077665
v -0.622386 -0.261113 -0.132417
v -0.507283 -0.281448 0.054979
v -0.507283 -0.281448 -0.109732
v -0.598733 -0.265292 0.064645
v -0.598733 -0.265292 -0.119397
v -0.392533 0.230017 0.062999
v -0.392533 0.230017 -0.117752
v -0.531288 0.254530 0.077665
v -0.531288 0.254530 -0.132417
v -0.311076 0.487680 0.062999
v -0.311076 0.487680 -0.117752
v -0.453941 0.695463 0.088989
v -0.453941 0.695463 -0.121093
v 0.385464 -0.891345 -0.149342
v 0.385464 -0.891345 0.105009
v 0.147415 -0.891345 -0.149342
v 0.147415 -0.891345 0.105009
v 0.429965 -1.660693 -0.136013
v 0.429965 -1.660693 0.093303
v 0.191916 -1.660693 -0.136013
v 0.191916 -1.660693 0.093303
v 0.448467 -1.836917 -0.198954
v 0.448467 -1.836917 0.128910
v 0.173414 -1.836917 -0.198954
v 0.173414 -1.836917 0.128910
v 0.369646 -1.703563 0.366506
v 0.252235 -1.703563 0.366505
v 0.378772 -1.836917 0.366506
v 0.243109 -1.836917 0.366505
v -0.301827 -0.343275 0.163834
v -0.044001 -0.343275 0.163834
v -0.044001 -0.356729 -0.199670
v -0.301827 -0.356729 -0.199670
v 0.080867 -0.343275 0.163834
v 0.337555 -0.356729 -0.199670
v 0.080867 -0.356729 -0.199670
v 0.337555 -0.343275 0.163834
v 0.110710 -0.531722 -0.196479
v 0.358078 -0.531722 0.146240
v 0.110710 -0.531722 0.146240
v 0.358078 -0.531722 -0.196479
v 0.094609 -0.443185 0.153485
v 0.346637 -0.443185 -0.210134
v 0.094609 -0.443185 -0.210134
v 0.346637 -0.443185 0.153485
v 0.085032 -0.443185 -0.223046
v 0.102292 -0.531722 -0.223046
v 0.355222 -0.443185 0.167432
v 0.367487 -0.531722 0.167432
v 0.367487 -0.531722 -0.223046
v 0.102292 -0.531722 0.167432
v 0.085032 -0.443185 0.167432
v 0.355222 -0.443185 -0.223046
v -0.220552 0.118428 -0.234009
v -0.220552 0.118428 0.180405
v 0.016415 0.118428 -0.234009
v 0.016415 0.118428 0.180405
v 0.253382 0.118428 0.180405
v 0.253382 0.118428 -0.234009
v 0.018487 -0.340170 0.206453
v -0.318755 -0.343275 -0.268162
v 0.354529 -0.343275 -0.268162
v -0.318755 -0.340170 0.206453
v 0.018487 -0.343275 -0.268162
v 0.354529 -0.340170 0.206453
v -0.210757 0.216824 -0.027423
v 0.243689 0.216824 -0.027423
v 0.317689 0.635373 0.003626
v -0.284757 0.635373 0.003626
v -0.208569 0.118428 -0.026802
v 0.241501 0.118428 -0.026802
v -0.220552 0.118428 -0.026802
v 0.253382 0.118428 -0.026802
v -0.318755 -0.341722 -0.030855
v 0.354529 -0.341722 -0.030855
v 0.395645 0.747033 -0.026029
v -0.362713 0.747033 -0.026029
v 0.085751 0.826867 -0.026029
v -0.052819 0.826867 -0.026029
vt 0.608391 0.178665
vt 0.610683 0.103988
vt 0.641407 0.165121
vt 0.641368 0.178665
vt 0.261834 0.179399
vt 0.286033 0.179399
vt 0.288494 0.251618
vt 0.264650 0.237760
vt 0.164171 0.179423
vt 0.163464 0.239196
vt 0.132403 0.246182
vt 0.142626 0.179436
vt 0.690279 0.461344
vt 0.701283 0.423166
vt 0.737866 0.432794
vt 0.719455 0.502122
vt 0.585916 0.178664
vt 0.610681 0.253344
vt 0.588384 0.238818
vt 0.488892 0.178642
vt 0.488301 0.238282
vt 0.179875 0.071936
vt 0.263848 0.081281
vt 0.264647 0.121036
vt 0.163412 0.119619
vt 0.504129 0.075601
vt 0.592000 0.076785
vt 0.588386 0.118514
vt 0.488351 0.119032
vt 0.889935 0.701759
vt 0.866147 0.717853
vt 0.844047 0.698489
vt 0.859069 0.661440
vt 0.288492 0.107177
vt 0.317983 0.166310
vt 0.317942 0.179398
vt 0.322115 0.252744
vt 0.317983 0.192487
vt 0.324126 0.192693
vt 0.645492 0.254618
vt 0.641406 0.192209
vt 0.647767 0.192442
vt 0.830688 0.747369
vt 0.765149 0.741480
vt 0.752945 0.696994
vt 0.859479 0.794457
vt 0.865634 0.804904
vt 0.866399 0.817815
vt 0.842168 0.836857
vt 0.829885 0.788757
vt 0.865117 0.730400
vt 0.859352 0.740679
vt 0.871296 0.767920
vt 0.829102 0.768106
vt 0.727358 0.657630
vt 0.725766 0.715517
vt 0.700223 0.713601
vt 0.764393 0.793586
vt 0.764981 0.767323
vt 0.750693 0.840699
vt 0.737602 0.745588
vt 0.718364 0.766507
vt 0.721895 0.821745
vt 0.734097 0.789002
vt 0.690279 0.821242
vt 0.860112 0.873301
vt 0.722653 0.884785
vt 0.889935 0.835251
vt 0.467211 0.178629
vt 0.457531 0.113239
vt 0.053199 0.510407
vt 0.133253 0.517316
vt 0.134996 0.584477
vt 0.053861 0.601186
vt 0.357417 0.665453
vt 0.355335 0.601144
vt 0.479751 0.584100
vt 0.479992 0.644422
vt 0.457437 0.244069
vt 0.132306 0.112639
vt 0.488755 0.067397
vt 0.160647 0.064153
vt 0.494535 0.583659
vt 0.494439 0.643872
vt 0.356186 0.511491
vt 0.351868 0.449246
vt 0.476265 0.456157
vt 0.478067 0.518461
vt 0.361854 0.358777
vt 0.482202 0.391423
vt 0.147921 0.517508
vt 0.150244 0.583122
vt 0.343972 0.519480
vt 0.345235 0.576246
vt 0.161166 0.643331
vt 0.146634 0.645519
vt 0.138003 0.456573
vt 0.153111 0.457754
vt 0.491201 0.456899
vt 0.496769 0.392699
vt 0.689694 0.404396
vt 0.687086 0.461844
vt 0.493137 0.518334
vt 0.074705 0.659968
vt 0.147031 0.390452
vt 0.161377 0.392509
vt 0.075248 0.364148
vt 0.055415 0.458179
vt 0.231205 0.831503
vt 0.173170 0.831503
vt 0.164159 0.786659
vt 0.247134 0.786659
vt 0.689377 0.521541
vt 0.689694 0.579114
vt 0.687670 0.638776
vt 0.247134 0.717050
vt 0.164159 0.717050
vt 0.294491 0.721732
vt 0.294491 0.781977
vt 0.158575 0.832057
vt 0.093885 0.801292
vt 0.104029 0.769021
vt 0.173170 0.672206
vt 0.231205 0.672206
vt 0.070280 0.766711
vt 0.070280 0.736997
vt 0.104029 0.734688
vt 0.158575 0.671652
vt 0.093885 0.702417
vt 0.000293 0.781977
vt 0.000293 0.721732
vt 0.861881 0.413238
vt 0.918401 0.406778
vt 0.934601 0.485589
vt 0.883361 0.494838
vt 0.825678 0.358777
vt 0.882161 0.366389
vt 0.939205 0.363474
vt 0.743330 0.393320
vt 0.786492 0.367642
vt 0.785932 0.400886
vt 0.847870 0.509511
vt 0.912310 0.594946
vt 0.887685 0.596326
vt 0.798326 0.539096
vt 0.769185 0.560149
vt 0.126621 0.936153
vt 0.095970 0.964405
vt 0.062826 0.916744
vt 0.081815 0.899242
vt 0.862236 0.615323
vt 0.939205 0.610933
vt 0.855692 0.657045
vt 0.891203 0.598661
vt 0.864770 0.620613
vt 0.860153 0.650244
vt 0.909186 0.597296
vt 0.935494 0.613958
vt 0.045784 0.900490
vt 0.067000 0.880934
vt 0.022393 0.958399
vt 0.005201 0.942188
vt 0.111862 0.843878
vt 0.126621 0.862331
vt 0.000293 0.864209
vt 0.034541 0.832643
vt 0.474195 0.927224
vt 0.519685 0.890944
vt 0.540902 0.910500
vt 0.508443 0.958791
vt 0.585764 0.947555
vt 0.555716 0.892191
vt 0.600523 0.929102
vt 0.496294 0.833034
vt 0.536728 0.874690
vt 0.479103 0.849246
vt 0.893567 0.043380
vt 0.897278 0.046405
vt 0.870384 0.062392
vt 0.867260 0.060042
vt 0.845759 0.061011
vt 0.849277 0.058677
vt 0.822844 0.036725
vt 0.820309 0.042014
vt 0.813766 0.000293
vt 0.818227 0.007093
vt 0.727259 0.097189
vt 0.756399 0.118242
vt 0.841434 0.162500
vt 0.892674 0.171748
vt 0.805943 0.147827
vt 0.600523 0.855280
vt 0.569872 0.827029
vt 0.695940 0.224544
vt 0.744005 0.256452
vt 0.819954 0.244100
vt 0.677529 0.155216
vt 0.744565 0.289696
vt 0.783752 0.298561
vt 0.659356 0.234172
vt 0.701404 0.264017
vt 0.876474 0.250560
vt 0.897278 0.293864
vt 0.840234 0.290949
vt 0.648353 0.195994
vt 0.582780 0.666593
vt 0.598709 0.711436
vt 0.515734 0.711436
vt 0.524746 0.666593
vt 0.348550 0.461130
vt 0.351283 0.634714
vt 0.351283 0.404579
vt 0.598709 0.781046
vt 0.515734 0.781046
vt 0.646067 0.776363
vt 0.646067 0.716119
vt 0.455605 0.729074
vt 0.445461 0.696803
vt 0.510151 0.666038
vt 0.524746 0.825889
vt 0.582780 0.825889
vt 0.421856 0.731384
vt 0.455605 0.763407
vt 0.421856 0.761098
vt 0.510151 0.826443
vt 0.445461 0.795679
vt 0.351868 0.716119
vt 0.351868 0.776363
vt 0.454306 0.245447
vt 0.465005 0.178615
vt 0.369618 0.898473
vt 0.369861 0.930053
vt 0.351868 0.914410
vt 0.129109 0.111344
vt 0.158414 0.062827
vt 0.462689 0.929578
vt 0.462458 0.897597
vt 0.473609 0.913521
vt 0.140374 0.179450
vt 0.371430 0.993946
vt 0.413418 0.999397
vt 0.462703 0.995281
vt 0.461508 0.831605
vt 0.472351 0.827029
vt 0.473609 0.999707
vt 0.454397 0.111830
vt 0.370243 0.834287
vt 0.352859 0.829108
vt 0.030710 0.669371
vt 0.027116 0.601224
vt 0.030658 0.602726
vt 0.033742 0.671066
vt 0.050160 0.504953
vt 0.050893 0.462935
vt 0.026086 0.507095
vt 0.030572 0.459888
vt 0.032536 0.461048
vt 0.028615 0.506194
vt 0.069120 0.665053
vt 0.051662 0.604706
vt 0.008414 0.508561
vt 0.000293 0.601899
vt 0.008047 0.669249
vt 0.006561 0.361639
vt 0.033308 0.363562
vt 0.013120 0.458132
vt 0.036450 0.358777
vt 0.074174 0.358903
vt 0.486616 0.065918
vt 0.330559 0.070148
vt 0.366104 0.000293
vt 0.324712 0.179030
vt 0.129202 0.247508
vt 0.004779 0.286927
vt 0.000293 0.179035
vt 0.330249 0.287534
vt 0.486589 0.291436
vt 0.365912 0.357348
vt 0.004456 0.071525
vt 0.412155 0.828226
vt 0.354126 0.999390
vt 0.160692 0.294600
vt 0.158444 0.295935
vt 0.036479 0.000293
vt 0.036684 0.358191
vt 0.488713 0.289968
vt 0.504096 0.281752
vt 0.179902 0.286832
vt 0.263849 0.277494
vt 0.592001 0.280562
vt 0.322114 0.106051
vt 0.324126 0.166104
vt 0.645492 0.102714
vt 0.647767 0.164889
vn 0.0000 0.8780 -0.4787
vn 0.0000 0.4328 0.9015
vn 0.0000 0.0126 0.9999
vn 0.4950 -0.3645 -0.7888
vn 0.0000 -0.0510 -0.9987
vn 0.0000 0.0597 -0.9982
vn 0.9847 -0.1741 0.0000
vn -0.9847 -0.1741 -0.0000
vn 0.0000 -0.0883 0.9961
vn -0.1400 -0.7816 -0.6078
vn 0.0000 0.8780 0.4787
vn -0.2495 0.9684 0.0000
vn 0.2495 0.9684 0.0000
vn -0.9969 -0.0785 -0.0000
vn 0.8501 -0.5267 -0.0000
vn -0.8875 -0.4607 0.0000
vn 0.1244 -0.8325 0.5399
vn -0.1980 0.5072 -0.8387
vn 0.3574 -0.0470 0.9328
vn -0.3541 -0.1431 -0.9242
vn 0.9969 -0.0785 -0.0000
vn 0.0000 1.0000 0.0000
vn 0.9312 0.3644 0.0000
vn -0.9312 0.3644 0.0000
vn 0.1980 0.5072 0.8387
vn -0.1980 0.5072 0.8387
vn 0.3541 -0.1431 -0.9242
vn -0.3574 -0.0470 0.9328
vn 0.1980 0.5072 -0.8387
vn -0.1257 -0.8286 0.5456
vn 0.1385 -0.7870 -0.6012
vn -0.0000 -0.0000 -1.0000
vn -0.9935 -0.1138 0.0000
vn 0.0000 -0.1192 0.9929
vn -0.9998 -0.0222 0.0000
vn 0.9998 -0.0222 0.0000
vn 0.0000 -0.0000 1.0000
vn 0.0000 -0.1050 -0.9945
vn 0.9901 -0.1400 0.0030
vn -0.9950 0.1000 -0.0022
vn -0.9993 -0.0370 0.0000
vn -0.9983 -0.0577 0.0000
vn 0.9983 -0.0577 0.0000
vn -0.9993 0.0370 0.0000
vn 0.9993 -0.0370 0.0000
vn 0.0000 -0.1354 0.9908
vn 0.9993 0.0370 0.0000
vn 0.9965 0.0834 0.0000
vn 0.0000 -0.1544 -0.9880
vn 0.9945 0.1044 0.0000
vn 0.0000 -0.0173 -0.9998
vn 0.0000 -0.0152 0.9999
vn -0.9983 0.0577 0.0000
vn 0.0000 -1.0000 0.0000
vn 0.0000 0.3364 -0.9417
vn 0.9603 0.1149 0.2541
vn -0.9945 0.1044 0.0000
vn -0.9603 0.1149 0.2541
vn 0.0000 0.9879 0.1550
vn -0.9535 -0.3014 0.0000
vn -0.9845 -0.1754 0.0000
vn 0.4921 0.8705 0.0000
vn 0.6157 -0.3652 0.6982
vn -0.1019 -0.0180 0.9946
vn -0.0650 0.0014 -0.9979
vn -0.1095 -0.0410 0.9931
vn 0.9850 0.1728 0.0000
vn -0.9848 -0.1740 0.0000
vn 0.9848 0.1740 0.0000
vn -0.1019 -0.0180 -0.9946
vn 0.1740 -0.9848 0.0000
vn -0.0568 -0.1562 -0.9861
vn -0.0568 -0.1562 0.9861
vn -0.9848 0.1740 0.0000
vn 0.0568 -0.1562 0.9861
vn 0.0568 -0.1562 -0.9861
vn -0.1740 -0.9848 0.0000
vn 0.1019 -0.0180 -0.9946
vn 0.9848 -0.1740 0.0000
vn -0.9850 0.1728 0.0000
vn 0.1095 -0.0410 0.9931
vn 0.0650 0.0014 -0.9979
vn 0.1019 -0.0180 0.9946
vn -0.6157 -0.3652 0.6982
vn -0.4921 0.8705 0.0000
vn 0.9845 -0.1754 0.0000
vn 0.9535 -0.3014 0.0000
vn -0.4950 -0.3645 -0.7888
vn -0.0000 -0.0173 -0.9999
vn 0.9983 0.0577 0.0000
vn 0.0000 0.9812 0.1928
vn 0.0000 0.9974 -0.0727
vn 0.4583 -0.8882 0.0329
vn 0.0000 -0.9974 0.0727
vn 0.0000 0.9993 -0.0370
vn 0.0000 -0.9812 -0.1928
vn -0.9893 -0.1462 0.0027
vn 0.0000 -0.1030 0.9947
vn 0.9953 0.0972 -0.0018
vn 0.0000 0.1202 -0.9928
vn 0.9905 0.1372 0.0000
vn -0.9815 -0.1914 0.0000
vn -0.9780 0.2084 -0.0007
vn 0.0000 0.0738 -0.9973
vn -0.0000 0.0567 0.9984
vn 0.9768 0.2144 -0.0007
vn -0.4593 -0.8877 0.0329
vn -0.6347 -0.7728 0.0051
vn -0.1647 -0.9863 0.0065
vn 0.9766 0.2150 -0.0008
vn -0.9779 0.2090 -0.0007
vn 0.1642 -0.9864 0.0065
vn 0.6336 -0.7736 0.0051
usemtl Material
s off
f 32/1/1 5/2/1 16/3/1 36/4/1
f 34/5/2 30/6/2 7/7/2 10/8/2
f 31/9/3 8/10/3 44/11/3 46/12/3
f 9/13/4 1/14/4 73/15/4 75/16/4
f 33/17/5 32/1/5 1/18/5 9/19/5
f 29/20/6 33/17/6 9/19/6 2/21/6
f 166/22/7 167/23/7 11/24/7 4/25/7
f 165/26/8 168/27/8 12/28/8 6/29/8
f 31/9/9 34/5/9 10/8/9 8/10/9
f 36/30/10 16/31/10 20/32/10 38/33/10
f 30/6/11 3/34/11 13/35/11 35/36/11
f 176/37/12 7/7/12 14/38/12 178/39/12
f 175/40/13 1/18/13 15/41/13 177/42/13
f 20/32/14 18/43/14 22/44/14 24/45/14
f 13/46/15 177/47/15 15/48/15 19/49/15 17/50/15
f 16/31/16 178/51/16 14/52/16 18/43/16 20/32/16
f 35/53/17 13/46/17 17/50/17 37/54/17
f 40/55/18 24/45/18 28/56/18 42/57/18
f 37/54/19 17/50/19 21/58/19 39/59/19
f 38/33/20 20/32/20 24/45/20 40/55/20
f 17/50/21 19/49/21 23/60/21 21/58/21
f 42/57/22 28/56/22 26/61/22 41/62/22
f 21/58/23 23/60/23 27/63/23 25/64/23
f 24/45/24 22/44/24 26/61/24 28/56/24
f 39/59/25 21/58/25 25/64/25 41/62/25
f 22/44/26 39/59/26 41/62/26 26/61/26
f 27/63/22 42/65/22 41/62/22 25/64/22
f 19/49/27 38/66/27 40/67/27 23/60/27
f 18/43/28 37/54/28 39/59/28 22/44/28
f 23/60/29 40/67/29 42/65/29 27/63/29
f 14/52/30 35/53/30 37/54/30 18/43/30
f 7/7/11 30/6/11 35/36/11 14/38/11
f 15/48/31 36/68/31 38/66/31 19/49/31
f 4/25/9 11/24/9 34/5/9 31/9/9
f 6/29/6 12/28/6 33/17/6 29/20/6
f 12/28/5 5/2/5 32/1/5 33/17/5
f 6/29/32 29/20/32 45/69/32 43/70/32
f 11/24/2 3/34/2 30/6/2 34/5/2
f 1/18/1 32/1/1 36/4/1 15/41/1
f 137/71/33 54/72/33 53/73/33 139/74/33
f 130/75/34 129/76/34 50/77/34 52/78/34
f 29/20/32 2/21/32 48/79/32 45/69/32
f 4/25/3 31/9/3 46/12/3 47/80/3
f 165/26/35 6/29/35 43/70/35 169/81/35
f 166/22/36 4/25/36 47/80/36 170/82/36
f 52/78/37 50/77/37 58/83/37 60/84/37
f 132/85/38 131/86/38 51/87/38 49/88/38
f 131/86/39 130/89/39 52/90/39 51/87/39
f 129/76/40 132/85/40 49/88/40 50/77/40
f 54/72/41 115/91/41 116/92/41 53/73/41
f 115/91/42 119/93/42 120/94/42 116/92/42
f 53/73/37 116/92/37 114/95/37 55/96/37
f 56/97/32 113/98/32 115/91/32 54/72/32
f 59/99/43 60/100/43 64/101/43 63/102/43
f 50/77/44 49/88/44 57/103/44 58/83/44
f 51/87/45 52/90/45 60/100/45 59/99/45
f 49/88/32 51/87/32 59/99/32 57/103/32
f 139/74/46 53/73/46 55/96/46 138/104/46
f 55/105/47 114/106/47 113/98/47 56/97/47
f 138/107/48 55/105/48 56/97/48 140/108/48
f 140/108/49 56/97/49 54/72/49 137/71/49
f 63/109/50 64/110/50 68/111/50 67/112/50
f 57/103/51 59/99/51 63/102/51 61/113/51
f 60/84/52 58/83/52 62/114/52 64/115/52
f 58/83/53 57/103/53 61/113/53 62/114/53
f 65/116/54 67/112/54 68/111/54 66/117/54
f 61/118/55 63/119/55 67/112/55 65/116/55
f 68/111/56 64/120/56 70/121/56 72/122/56
f 62/123/57 61/124/57 65/116/57 66/117/57
f 70/125/37 69/126/37 71/127/37 72/122/37
f 66/117/54 68/111/54 72/122/54 71/127/54
f 62/128/58 66/117/58 71/127/58 69/129/58
f 64/130/59 62/131/59 69/126/59 70/125/59
f 76/132/60 75/133/60 79/134/60 80/135/60
f 11/136/61 167/137/61 9/138/61 75/133/61 76/132/61
f 1/14/62 175/139/62 3/140/62 74/141/62 73/15/62
f 3/140/63 11/136/63 76/132/63 74/141/63
f 78/142/64 80/135/64 88/143/64 86/144/64
f 75/16/65 73/15/65 77/145/65 79/146/65
f 74/141/66 76/132/66 80/135/66 78/142/66
f 73/15/67 74/141/67 78/142/67 77/145/67
f 84/147/68 83/148/68 91/149/68 92/150/68
f 77/145/69 78/142/69 86/144/69 85/151/69
f 80/135/68 79/134/68 87/152/68 88/143/68
f 79/146/70 77/145/70 85/151/70 87/153/70
f 82/154/71 81/155/71 85/151/71 86/144/71
f 81/155/71 83/156/71 87/153/71 85/151/71
f 84/157/71 82/154/71 86/144/71 88/143/71
f 83/158/71 84/157/71 88/143/71 87/152/71
f 91/149/71 89/159/71 90/160/71 92/150/71
f 83/161/72 81/162/72 89/159/72 91/149/72
f 82/163/73 84/164/73 92/150/73 90/160/73
f 81/165/69 82/166/69 90/160/69 89/159/69
f 104/167/74 96/168/74 95/169/74 103/170/74
f 103/171/75 95/169/75 93/172/75 101/173/75
f 102/174/76 94/175/76 96/168/76 104/176/76
f 94/175/77 93/172/77 95/169/77 96/168/77
f 102/177/77 98/178/77 97/179/77 101/180/77
f 101/180/77 97/179/77 99/181/77 103/182/77
f 104/183/77 100/184/77 98/185/77 102/186/77
f 103/182/77 99/181/77 100/184/77 104/183/77
f 106/187/78 98/185/78 100/184/78 108/188/78
f 105/189/79 97/179/79 98/178/79 106/190/79
f 108/188/74 100/184/74 99/181/74 107/191/74
f 101/192/79 93/172/79 94/175/79 102/193/79
f 112/194/80 108/188/80 107/191/80 111/195/80
f 111/195/81 107/191/81 105/189/81 109/196/81
f 110/197/82 106/187/82 108/188/82 112/194/82
f 107/191/83 99/181/83 97/179/83 105/189/83
f 7/198/84 111/195/84 109/196/84 10/199/84
f 5/200/85 112/194/85 111/195/85 7/198/85 176/201/85
f 10/199/86 109/196/86 110/202/86 12/203/86 168/204/86
f 109/196/87 105/189/87 106/190/87 110/202/87
f 12/205/88 110/197/88 112/194/88 5/200/88
f 119/206/57 123/207/57 124/208/57 120/209/57
f 113/98/89 117/210/89 119/93/89 115/91/89
f 116/92/52 120/94/52 118/211/52 114/95/52
f 114/106/90 118/212/90 117/210/90 113/98/90
f 121/213/54 122/214/54 124/208/54 123/207/54
f 117/215/55 121/213/55 123/207/55 119/216/55
f 124/208/58 128/217/58 126/218/58 120/219/58
f 118/220/50 122/214/50 121/213/50 117/221/50
f 126/222/37 128/217/37 127/223/37 125/224/37
f 122/214/54 127/223/54 128/217/54 124/208/54
f 118/225/56 125/226/56 127/223/56 122/214/56
f 120/227/59 126/222/59 125/224/59 118/228/59
f 45/69/22 48/79/22 158/229/22 155/230/22
f 131/231/91 135/232/91 163/233/91
f 170/82/22 47/80/22 157/234/22 172/235/22
f 133/236/92 130/237/92 159/238/92
f 47/80/22 46/12/22 156/239/22 157/234/22
f 134/240/93 174/241/93 136/242/93
f 129/243/94 130/237/94 159/238/94 162/244/94
f 133/236/94 136/242/94 164/245/94 159/238/94
f 131/231/95 130/237/95 133/236/95 135/232/95
f 43/70/22 45/69/22 155/230/22 153/246/22
f 131/231/96 132/247/96 160/248/96 163/233/96
f 144/249/22 141/250/22 151/251/22 147/252/22
f 140/108/54 137/71/54 146/253/54 149/254/54
f 143/255/22 142/256/22 152/257/22 145/258/22
f 139/74/54 138/104/54 148/259/54 150/260/54
f 135/261/97 143/255/97 141/250/97 133/262/97
f 133/262/98 141/250/98 144/249/98 136/263/98
f 136/264/99 144/265/99 142/256/99 134/266/99
f 134/266/100 142/256/100 143/255/100 135/261/100
f 152/257/32 149/254/32 146/253/32 145/258/32
f 147/267/101 148/268/101 149/254/101 152/257/101
f 151/251/37 150/260/37 148/259/37 147/252/37
f 145/258/102 146/253/102 150/260/102 151/251/102
f 137/71/54 139/74/54 150/260/54 146/253/54
f 138/107/54 140/108/54 149/254/54 148/268/54
f 142/256/22 144/265/22 147/267/22 152/257/22
f 141/250/22 143/255/22 145/258/22 151/251/22
f 171/269/103 153/246/103 160/270/103 173/271/103
f 153/246/104 155/230/104 163/272/104 160/270/104
f 156/239/105 154/273/105 162/274/105 159/275/105
f 158/229/104 161/276/104 163/272/104 155/230/104
f 172/277/106 174/278/106 161/276/106 158/229/106
f 156/239/105 159/275/105 164/279/105 157/234/105
f 46/12/22 44/11/22 154/273/22 156/239/22
f 129/243/107 173/280/107 132/247/107
f 134/240/96 135/232/96 163/233/96 161/281/96
f 160/248/108 132/247/108 173/280/108
f 162/244/109 173/280/109 129/243/109
f 169/81/22 43/70/22 153/246/22 171/269/22
f 44/11/22 169/282/22 171/283/22 154/273/22
f 157/234/110 164/279/110 174/284/110 172/235/110
f 154/273/111 171/283/111 173/285/111 162/274/111
f 48/79/22 170/286/22 172/277/22 158/229/22
f 2/21/36 166/287/36 170/286/36 48/79/36
f 8/10/35 165/288/35 169/282/35 44/11/35
f 8/10/8 10/8/8 168/289/8 165/288/8
f 2/21/7 9/19/7 167/290/7 166/287/7
f 3/34/13 175/291/13 177/292/13 13/35/13
f 5/2/12 176/293/12 178/294/12 16/3/12
f 164/245/112 136/242/112 174/241/112
f 174/241/113 134/240/113 161/281/113
l 159 163
